<?xml version="1.0" standalone="no"?>
<!DOCTYPE svg PUBLIC "-//W3C//DTD SVG 20010904//EN"
 "http://www.w3.org/TR/2001/REC-SVG-20010904/DTD/svg10.dtd">
<svg version="1.0" xmlns="http://www.w3.org/2000/svg"
 width="1080.000000pt" height="1080.000000pt" viewBox="0 0 1080.000000 1080.000000"
 preserveAspectRatio="xMidYMid meet">

<g transform="translate(0.000000,1080.000000) scale(0.100000,-0.100000)"
fill="#000000" stroke="none">
<path d="M4010 6980 c-145 -26 -322 -118 -443 -230 -86 -81 -107 -108 -1032
-1353 -94 -126 -273 -367 -399 -535 -400 -537 -447 -602 -463 -640 -23 -54
-22 -174 1 -242 22 -63 105 -153 171 -185 61 -30 224 -28 283 3 77 41 133 103
294 327 37 51 155 207 266 353 48 63 101 132 117 155 32 44 98 131 137 181 13
16 37 48 53 71 17 23 93 125 169 226 77 101 281 372 454 601 319 424 410 531
486 567 133 65 241 -5 465 -302 185 -245 1051 -1401 1342 -1792 201 -269 257
-338 305 -374 80 -58 157 -96 279 -136 318 -105 632 -48 894 162 90 71 131
118 268 303 54 74 158 214 229 310 72 96 184 247 249 335 199 270 213 289 237
319 13 16 37 48 53 71 27 38 226 306 304 410 17 22 97 130 179 240 81 110 201
270 265 356 167 224 162 215 162 334 0 119 -18 169 -88 239 -54 53 -102 79
-179 96 -94 21 -198 -10 -281 -85 -26 -23 -516 -668 -1381 -1820 -182 -242
-362 -472 -401 -511 -155 -157 -258 -152 -422 19 -43 45 -172 208 -288 361
-115 153 -257 339 -314 414 -57 76 -233 306 -390 512 -156 206 -314 413 -350
460 -36 47 -121 159 -190 250 -195 257 -235 304 -316 364 -109 82 -225 135
-370 166 -49 11 -293 11 -355 0z"/>
<path d="M4080 4956 c-221 -60 -360 -278 -320 -503 23 -135 120 -263 242 -322
75 -36 184 -49 270 -32 341 63 472 499 224 744 -110 108 -272 152 -416 113z"/>
</g>
</svg>
