<?xml version="1.0" standalone="no"?>
<!DOCTYPE svg PUBLIC "-//W3C//DTD SVG 20010904//EN"
 "http://www.w3.org/TR/2001/REC-SVG-20010904/DTD/svg10.dtd">
<svg version="1.0" xmlns="http://www.w3.org/2000/svg"
 width="1080.000000pt" height="1080.000000pt" viewBox="0 0 1080.000000 1080.000000"
 preserveAspectRatio="xMidYMid meet">

<g transform="translate(0.000000,1080.000000) scale(0.100000,-0.100000)"
fill="#000000" stroke="none">
<path d="M6404 6384 c-95 -34 -113 -60 -291 -423 -315 -642 -554 -1112 -581
-1143 -8 -10 -19 -15 -23 -12 -5 3 -9 313 -9 690 0 558 -3 691 -14 718 -21 49
-71 101 -121 125 -54 25 -156 28 -206 6 -72 -31 -71 -30 -644 -770 -339 -437
-408 -520 -435 -520 -20 0 -50 31 -145 150 -180 225 -658 827 -743 935 -147
187 -183 213 -297 213 -53 1 -80 -5 -111 -21 -88 -45 -152 -158 -141 -249 8
-73 51 -139 267 -410 113 -142 320 -402 460 -578 141 -176 307 -385 369 -465
194 -247 211 -260 348 -260 46 0 83 3 83 8 0 4 15 13 33 21 35 15 77 49 77 63
0 5 16 26 35 46 19 20 35 40 35 44 0 4 18 26 40 49 22 23 40 46 40 51 0 5 16
26 35 46 19 20 35 41 35 46 0 5 8 16 18 25 10 9 47 54 83 100 35 46 78 100 94
121 118 150 147 188 211 271 58 76 70 85 78 57 3 -13 8 -369 12 -793 6 -839 7
-843 63 -908 16 -17 48 -42 71 -55 37 -19 56 -22 158 -21 107 1 121 3 166 27
46 25 53 35 110 147 34 66 64 122 69 123 4 2 7 9 7 15 0 15 165 345 183 366 8
9 22 34 32 56 44 101 100 210 107 213 4 2 8 9 8 15 0 6 83 177 184 381 101
204 196 398 212 431 15 33 32 62 36 63 4 2 8 9 8 15 1 21 36 56 64 63 52 13
67 -10 255 -383 187 -373 207 -404 294 -452 54 -30 148 -29 211 3 58 29 80 49
119 106 29 41 32 52 32 125 l0 80 -152 300 c-83 165 -234 464 -335 665 -162
322 -191 372 -239 420 -75 77 -159 98 -255 64z"/>
<path d="M7586 4030 c-105 -41 -171 -144 -164 -255 6 -90 39 -149 113 -199 57
-39 63 -41 135 -41 71 1 78 3 141 44 96 64 114 95 114 200 0 101 -20 148 -86
204 -76 66 -164 82 -253 47z"/>
</g>
</svg>
