<?xml version="1.0" encoding="UTF-8"?>
<svg xmlns="http://www.w3.org/2000/svg" version="1.1" viewBox="0 0 4167 4167">
  <!-- Generator: Adobe Illustrator 28.6.0, SVG Export Plug-In . SVG Version: 1.2.0 Build 709)  -->
  <g>
    <g id="Layer_1">
      <path d="M1949.6,313.6c-270.2.3-523.7,174.5-639.3,416-57,116.5-78.2,247.1-68.4,376.1,2.8,40.7,8.2,81.4,17.4,121.1,23.7,99.1,80.6,192.6,128.7,283.3,60.8,111,125.2,220.2,185.5,331.3,53,101.1,126.7,215.8,84.6,333.1-33.4,97.6-130,162.6-232.9,159.4-61.8-.8-122.1-19.4-183.1-32.7-39.4-8.9-79.3-16.2-119.5-19.8-202.8-20.8-387.9,34.6-544.7,165.5-120.5,100.9-213.8,239.6-248.7,393.9-14.1,64-18.2,131.2-16.9,197.4,1.1,55.7,6.2,111.9,19.2,166,58,234.9,244.7,430.6,470,514,79.3,29.3,164,40.3,248.4,39.2,52.8-.4,104.7-4.7,156.2-15.6,244.6-52.3,451.1-233.9,539.1-467.5,31.3-77,58.9-160.6,122.2-218.1,96.8-89.4,255.4-83.8,359.5-9.3,57.5,40.9,97.8,100.3,135.1,159.1,53,83.4,99.9,169.2,158.8,248.6,104.9,144.9,266.2,249.2,441.4,284.4,146,26.8,301.6,15.6,439.3-41.5,127-53.2,235.9-147.3,317.1-258,78.5-108,122.4-237.5,134.1-369.8,6.4-80.6-2.6-163.1-23-241.6-33.4-124.3-106.7-233.5-167.9-345.5-112.8-198.8-226.1-396.8-339.9-595.2-105.5-184-211.5-368.3-317.5-552-103.4-178.7-205.7-357.5-311.8-534.6-50.1-82.1-101.2-168-166.1-240-157.3-174.9-341.2-254.5-576.7-247.1h-.2ZM2032.3,566.7c156,7.9,283.5,116.4,367.7,241.3,61.2,92.2,114.5,187.6,171.3,283,149.1,256.3,296.8,513.5,444.6,770.6,131.7,229.5,263.1,458.6,393.6,688.7,26.5,46.6,52.9,93.2,79.3,139.9,51.5,90.7,107.7,185.3,112.9,291.9,6.4,89.3-13.3,180.4-56.4,259-58.3,104.2-152.9,191.1-265.1,233.5-53.5,20.5-113,26.8-170.6,26.6-79.7,1-158.4-17.6-227.3-57.1-118.9-63.5-186.6-171.3-252.6-284.1-130-213.8-225.4-371-490.5-415.1-71.2-15.1-140.8-11.9-211.6,4.6-91.5,18.2-176.6,59.6-243.1,125.3-40.7,39-73.7,84.6-100.3,134.2-31.3,58.2-51.5,121.8-78,182.9-64.1,158.2-211.3,284.6-381.9,308.9-71.5,9.2-145,8.3-214.5-12.6-180.7-57-332-224.7-344.3-417.4-5.4-78-.6-158.1,28.3-231.3,50-126,156.5-228.2,281.3-279.7,94.8-39.1,201.9-36.3,301.2-17.5,157.3,32.8,241.2,70.1,405.5,23.7,119.6-31.3,220.1-119.6,281.6-225.1,39.7-70.3,59.4-153,64-233.1,2.4-139.4-64.7-266.3-130.6-385.3-70-128-144.5-253.6-213.2-382.3-29.1-55.3-60.6-110.6-77.2-171.1-24.8-96.8-20.3-202.1,16.1-295.5,54.1-135.4,172.2-249,312.3-291.5,63.8-18.8,131.5-19.3,197.4-15.3h.2Z"/>
    </g>
  </g>
</svg>