<?xml version="1.0" standalone="no"?>
<!DOCTYPE svg PUBLIC "-//W3C//DTD SVG 20010904//EN"
 "http://www.w3.org/TR/2001/REC-SVG-20010904/DTD/svg10.dtd">
<svg version="1.0" xmlns="http://www.w3.org/2000/svg"
 width="700.000000pt" height="700.000000pt" viewBox="0 0 700.000000 700.000000"
 preserveAspectRatio="xMidYMid meet">
<metadata>
Created by potrace 1.14, written by Peter Selinger 2001-2017
</metadata>
<g transform="translate(0.000000,700.000000) scale(0.100000,-0.100000)"
fill="#000000" stroke="none">
<path d="M3215 6979 c-38 -4 -95 -11 -125 -14 -72 -8 -119 -15 -150 -21 -14
-2 -38 -7 -55 -9 -131 -22 -323 -71 -470 -120 -523 -174 -976 -450 -1358 -828
-307 -304 -505 -579 -692 -962 -143 -292 -261 -652 -299 -910 -4 -22 -11 -66
-17 -98 -6 -33 -12 -75 -14 -95 -2 -21 -7 -73 -12 -117 -10 -100 -10 -536 0
-630 8 -72 11 -90 28 -209 34 -243 104 -496 220 -796 48 -125 183 -387 273
-530 67 -107 219 -320 259 -362 6 -8 41 -47 77 -88 146 -169 352 -361 525
-488 39 -28 75 -55 80 -60 26 -20 189 -124 270 -171 85 -50 365 -191 379 -191
4 0 26 -8 49 -19 147 -65 495 -170 652 -197 17 -2 55 -9 85 -14 30 -5 73 -12
95 -15 22 -3 54 -8 70 -10 191 -31 683 -26 902 9 21 3 55 9 77 12 21 3 48 7
60 10 11 2 35 6 51 9 190 36 528 137 650 195 11 5 36 15 56 23 60 24 299 140
296 143 -4 4 -169 38 -227 48 -36 6 -300 55 -427 79 -65 12 -77 12 -130 -5
-331 -104 -705 -146 -1094 -125 -69 4 -134 9 -145 11 -10 2 -41 7 -69 10 -43
6 -147 23 -180 30 -5 2 -37 8 -70 15 -414 88 -872 301 -1216 567 -541 418
-937 1016 -1102 1664 -48 188 -61 261 -82 440 -22 184 -22 581 0 691 3 13 7
42 9 64 5 47 13 91 26 160 6 28 12 59 14 70 26 135 98 365 161 520 231 565
628 1052 1144 1399 62 42 114 76 117 76 2 0 23 12 45 26 114 71 368 187 551
250 88 30 287 87 348 98 14 3 50 10 80 16 30 6 71 13 90 15 19 2 51 7 70 10
100 16 287 28 420 28 93 -1 299 -12 332 -18 11 -2 46 -7 77 -11 93 -10 298
-54 426 -90 316 -91 631 -238 885 -413 137 -94 123 -84 255 -194 427 -356 751
-832 937 -1376 52 -153 108 -380 123 -498 7 -57 16 -125 21 -153 14 -89 17
-440 18 -1847 1 -870 3 -1583 6 -1586 5 -5 379 -77 399 -77 13 0 14 3322 1
3455 -16 161 -19 184 -45 334 -89 517 -315 1041 -639 1476 -484 651 -1214
1130 -1996 1311 -106 25 -128 29 -212 44 -95 17 -102 18 -174 25 -38 4 -80 9
-94 12 -43 9 -541 11 -615 2z"/>
<path d="M3348 6355 c-2 -2 -43 -6 -91 -9 -120 -9 -152 -14 -297 -42 -115 -22
-164 -33 -230 -54 -14 -4 -52 -16 -85 -25 -90 -27 -268 -97 -378 -149 -384
-184 -701 -435 -1002 -797 -45 -54 -166 -230 -222 -324 -159 -265 -295 -621
-347 -905 -3 -19 -8 -46 -11 -59 -6 -31 -23 -160 -31 -231 -18 -173 -8 -536
21 -689 1 -9 6 -36 10 -61 30 -193 118 -481 207 -680 243 -542 658 -1004 1165
-1299 238 -138 561 -270 753 -307 14 -3 41 -9 60 -14 19 -5 51 -12 70 -15 19
-3 42 -8 50 -10 78 -22 343 -47 511 -47 89 0 284 10 320 17 9 2 40 6 70 10
131 16 415 82 517 121 l42 16 0 220 c0 205 -1 220 -17 215 -10 -3 -83 -28
-163 -56 -437 -149 -910 -167 -1371 -51 -736 186 -1355 716 -1648 1410 -59
142 -123 337 -136 420 -3 19 -10 51 -15 70 -5 19 -12 58 -16 85 -3 28 -8 59
-10 70 -17 84 -23 401 -10 530 37 384 149 725 344 1050 343 569 906 974 1557
1120 63 14 134 28 158 31 23 3 51 7 62 9 44 9 206 19 305 19 108 -1 319 -12
329 -18 3 -2 29 -7 56 -10 95 -13 281 -58 400 -98 729 -244 1301 -817 1543
-1543 38 -117 84 -303 97 -395 3 -25 8 -52 10 -60 15 -58 19 -376 19 -1751 l1
-1556 90 -17 c50 -9 104 -19 120 -22 17 -2 65 -11 108 -20 43 -8 83 -14 89
-12 8 3 11 416 10 1589 0 871 -3 1613 -6 1649 -30 363 -100 653 -233 959 -46
107 -122 256 -155 303 -10 14 -18 29 -18 32 0 7 -130 204 -155 234 -325 406
-616 647 -1020 847 -225 111 -458 195 -640 231 -11 2 -31 6 -45 9 -14 3 -47
10 -75 15 -27 5 -59 11 -70 13 -11 3 -49 8 -85 12 -36 3 -83 9 -105 12 -42 5
-402 12 -407 8z"/>
<path d="M3377 5715 c-1 -2 -36 -5 -78 -8 -72 -6 -256 -34 -269 -42 -4 -2 -21
-7 -38 -10 -103 -18 -317 -95 -472 -169 -383 -186 -722 -504 -943 -888 -52
-90 -157 -317 -157 -338 0 -6 -4 -18 -10 -28 -11 -19 -57 -172 -64 -212 -2
-14 -9 -43 -14 -65 -6 -22 -13 -58 -17 -80 -3 -23 -7 -51 -10 -64 -18 -93 -25
-384 -12 -521 8 -86 24 -190 43 -270 9 -36 18 -76 20 -90 8 -40 69 -218 103
-298 65 -156 222 -423 298 -507 10 -11 39 -45 65 -76 346 -411 847 -682 1398
-755 171 -23 467 -22 590 1 14 3 40 7 58 10 78 12 101 17 177 36 104 26 166
47 298 98 l107 43 0 239 0 239 -41 -25 c-73 -47 -222 -113 -344 -154 -114 -37
-141 -45 -210 -57 -16 -2 -37 -7 -45 -9 -47 -13 -155 -20 -310 -20 -207 0
-282 8 -445 50 -523 133 -960 492 -1190 977 -71 151 -130 334 -150 468 -2 19
-9 62 -14 95 -18 121 -11 396 14 524 3 14 8 42 11 61 11 66 55 205 99 313 195
482 603 866 1095 1030 91 31 213 60 340 83 55 9 369 13 430 4 115 -16 147 -22
210 -36 527 -121 976 -472 1214 -951 94 -189 132 -309 182 -578 4 -22 9 -728
11 -1569 2 -842 5 -1531 7 -1533 3 -3 286 -57 393 -75 17 -3 18 56 18 1527 0
842 -4 1571 -9 1620 -36 413 -208 835 -476 1176 -133 169 -324 344 -515 470
-207 138 -517 268 -750 315 -11 2 -31 6 -45 9 -51 11 -112 21 -195 31 -46 6
-352 13 -358 9z"/>
<path d="M3407 5084 c-1 -1 -31 -4 -67 -8 -460 -42 -911 -316 -1163 -706 -143
-222 -228 -458 -254 -710 -12 -114 -5 -345 12 -425 43 -199 74 -291 140 -429
124 -259 319 -479 565 -638 167 -109 379 -196 540 -223 19 -3 42 -8 50 -10 74
-19 351 -27 465 -12 241 31 468 115 676 248 l79 51 0 296 0 296 -23 -32 c-75
-101 -208 -218 -329 -290 -189 -111 -379 -162 -603 -162 -122 0 -168 5 -267
30 -225 58 -367 135 -548 302 -37 33 -122 135 -158 190 -59 87 -137 261 -157
348 -30 135 -37 190 -37 290 1 113 2 131 23 240 55 288 238 565 486 736 142
98 335 172 508 196 77 10 294 6 365 -7 354 -67 673 -306 830 -620 25 -49 50
-103 57 -120 17 -42 51 -172 58 -220 4 -22 8 -51 11 -65 3 -14 5 -667 5 -1453
0 -864 4 -1427 10 -1428 5 -1 12 -2 17 -3 4 -1 27 -6 52 -10 63 -12 81 -15
110 -21 27 -5 117 -22 165 -30 17 -3 38 -8 48 -11 16 -5 17 65 16 1468 -1
1486 -1 1503 -33 1684 -9 47 -47 173 -75 246 -80 205 -195 382 -351 538 -109
109 -134 130 -244 205 -205 139 -452 230 -708 261 -51 6 -266 13 -271 8z"/>
</g>
</svg>
